<svg width="26" height="26" viewBox="0 0 26 26" fill="none" xmlns="http://www.w3.org/2000/svg">
<circle cx="13" cy="13" r="13" fill="white"/>
<path d="M17.9686 7.28665C17.5922 6.8614 16.9856 6.76853 16.5252 7.03665L16.4354 7.09525V7.09622C15.9684 7.43139 15.7905 8.03516 15.9998 8.564L16.0467 8.66849L16.0477 8.67142C16.0941 8.76507 16.1625 8.8597 16.244 8.95169L16.3299 9.04251L16.3309 9.04446C17.6775 10.4075 18.2686 12.0526 17.9168 13.9468L17.8338 14.3296C17.3768 16.1669 16.2455 17.4263 14.5838 18.0591L14.2449 18.1773H14.244C12.4436 18.7454 10.748 18.3828 9.29474 17.1617C8.04155 16.1111 7.39969 14.6963 7.37775 13.0308L7.37872 13.0298C7.36133 11.7846 7.75063 10.6743 8.47443 9.71439L8.62384 9.52493C8.69496 9.43739 8.77457 9.36666 8.83185 9.31595L8.96759 9.18802L8.97052 9.18509L9.0838 9.04935C9.3198 8.72689 9.37134 8.36543 9.24493 7.95071L9.24591 7.94974C9.09999 7.48407 8.79029 7.22041 8.32697 7.1265L8.32794 7.12552C8.03154 7.06597 7.75949 7.12358 7.49396 7.3013L7.38068 7.38528L7.3797 7.38626C6.85275 7.8061 6.46324 8.35625 6.11017 8.98001L5.96075 9.2515C5.34021 10.4111 5.03892 11.6572 5.04279 12.979L5.04767 13.2447V13.2456C5.10011 14.8698 5.58599 16.3235 6.49884 17.6118L6.68732 17.8677C7.60814 19.067 8.74338 19.9304 10.1043 20.4068L10.3797 20.4966C12.7538 21.2235 14.9593 20.9137 16.9725 19.5044L17.3719 19.2076C18.6581 18.2019 19.5315 16.8861 20.0047 15.2906L20.0945 14.9673V14.9663L20.1531 14.7242C20.2797 14.1591 20.3358 13.5797 20.3387 12.9859C20.3079 10.8194 19.5667 8.97622 18.1072 7.44388L18.1082 7.4429L17.9705 7.2886L17.9686 7.28665Z" fill="#FE724C" stroke="white" stroke-width="0.8"/>
<path d="M13.2485 4.2767C12.9056 4.07964 12.5668 4.0612 12.2299 4.22202L12.0854 4.30209L12.0844 4.30307C11.71 4.53718 11.5112 4.87821 11.5112 5.3392V5.34018C11.5053 7.60051 11.5053 8.39453 11.5112 10.6546C11.5133 11.263 11.9262 11.7522 12.4545 11.8587L12.562 11.8744L12.5639 11.8753C13.1378 11.9347 13.6619 11.5787 13.8286 11.0052L13.8569 10.888L13.8725 10.7601C13.8752 10.7139 13.8754 10.6626 13.8754 10.6039C13.8696 9.49358 13.8696 9.11478 13.8696 8.00522C13.8696 6.87918 13.8725 6.48879 13.8696 5.36557C13.8676 4.92719 13.7055 4.60147 13.392 4.37045L13.2485 4.27768V4.2767Z" fill="#FE724C" stroke="white" stroke-width="0.8"/>
</svg>
